<svg width="26" height="26" viewBox="0 0 26 26" fill="none" xmlns="http://www.w3.org/2000/svg">
<circle cx="13" cy="13" r="13" fill="#D9D9D9"/>
<g clip-path="url(#clip0_14_16)">
<path d="M12.5 12.5625C15.1396 12.5625 17.2812 10.4209 17.2812 7.78125C17.2812 5.1416 15.1396 3 12.5 3C9.86035 3 7.71875 5.1416 7.71875 7.78125C7.71875 10.4209 9.86035 12.5625 12.5 12.5625ZM16.75 13.625H14.9205C14.1834 13.9637 13.3633 14.1562 12.5 14.1562C11.6367 14.1562 10.8199 13.9637 10.0795 13.625H8.25C5.90254 13.625 4 15.5275 4 17.875V18.4062C4 19.2861 4.71387 20 5.59375 20H19.4062C20.2861 20 21 19.2861 21 18.4062V17.875C21 15.5275 19.0975 13.625 16.75 13.625Z" fill="white"/>
</g>
<defs>
<clipPath id="clip0_14_16">
<rect width="17" height="17" fill="white" transform="translate(4 3)"/>
</clipPath>
</defs>
</svg>
